HIERARCHY
ROOT Hips
{
  OFFSET 5.72205e-005 65.662 3.42586
  CHANNELS 6 Xposition Yposition Zposition Zrotation Xrotation Yrotation
  JOINT Chest
  {
    OFFSET 0 8.7983 -4.7612
    CHANNELS 6 Xposition Yposition Zposition Zrotation Xrotation Yrotation
    JOINT Chest2
    {
      OFFSET 0 8.0291 0.4195
      CHANNELS 6 Xposition Yposition Zposition Zrotation Xrotation Yrotation
      JOINT Chest3
      {
        OFFSET 0 9.9351 -2.2114
        CHANNELS 6 Xposition Yposition Zposition Zrotation Xrotation Yrotation
        JOINT Neck
        {
          OFFSET 0 22.3885 -0.4656
          CHANNELS 6 Xposition Yposition Zposition Zrotation Xrotation Yrotation
          JOINT Head
          {
            OFFSET -0.0001 12.643 3.4389
            CHANNELS 6 Xposition Yposition Zposition Zrotation Xrotation Yrotation
            End Site
            {
              OFFSET 0.0001 17.6655 0.5274
            }
          }
        }
        JOINT LeftCollar
        {
          OFFSET 2.2603 21.606 7.4023
          CHANNELS 6 Xposition Yposition Zposition Zrotation Xrotation Yrotation
          JOINT LeftShoulder
          {
            OFFSET 13.5163 -1.1332 -5.0146
            CHANNELS 6 Xposition Yposition Zposition Zrotation Xrotation Yrotation
            JOINT LeftElbow
            {
              OFFSET -0.0995 -28.05 -0.2431
              CHANNELS 6 Xposition Yposition Zposition Zrotation Xrotation Yrotation
              JOINT LeftWrist
              {
                OFFSET 0.0679 -23.3996 -0.1402
                CHANNELS 6 Xposition Yposition Zposition Zrotation Xrotation Yrotation
                JOINT LeftFinger1
                {
                  OFFSET 0.7932 -9.069 2.5189
                  CHANNELS 6 Xposition Yposition Zposition Zrotation Xrotation Yrotation
                  JOINT LeftFinger11
                  {
                    OFFSET -0.8272 -3.3923 0.5977
                    CHANNELS 6 Xposition Yposition Zposition Zrotation Xrotation Yrotation
                    JOINT LeftFinger12
                    {
                      OFFSET -0.5649 -2.3158 0.4082
                      CHANNELS 6 Xposition Yposition Zposition Zrotation Xrotation Yrotation
                      End Site
                      {
                        OFFSET -0.4919 -1.6479 0.2673
                      }
                    }
                  }
                }
                JOINT LeftFinger2
                {
                  OFFSET 0.9159 -9.2044 0.2193
                  CHANNELS 6 Xposition Yposition Zposition Zrotation Xrotation Yrotation
                  JOINT LeftFinger21
                  {
                    OFFSET 0.0117 -4.1944 -0.0248
                    CHANNELS 6 Xposition Yposition Zposition Zrotation Xrotation Yrotation
                    JOINT LeftFinger22
                    {
                      OFFSET 0.0071 -2.3249 -0.0142
                      CHANNELS 6 Xposition Yposition Zposition Zrotation Xrotation Yrotation
                      End Site
                      {
                        OFFSET -0.1475 -2.0882 0.0028
                      }
                    }
                  }
                }
                JOINT LeftFinger3
                {
                  OFFSET 0.6113 -8.7231 -2.0637
                  CHANNELS 6 Xposition Yposition Zposition Zrotation Xrotation Yrotation
                  JOINT LeftFinger31
                  {
                    OFFSET -0.1927 -3.8059 -0.2383
                    CHANNELS 6 Xposition Yposition Zposition Zrotation Xrotation Yrotation
                    JOINT LeftFinger32
                    {
                      OFFSET -0.1091 -2.1688 -0.1362
                      CHANNELS 6 Xposition Yposition Zposition Zrotation Xrotation Yrotation
                      End Site
                      {
                        OFFSET -0.2358 -1.9176 -0.0906
                      }
                    }
                  }
                }
                JOINT LeftFinger4
                {
                  OFFSET -0.6151 -8.0947 -3.5641
                  CHANNELS 6 Xposition Yposition Zposition Zrotation Xrotation Yrotation
                  JOINT LeftFinger41
                  {
                    OFFSET -0.4882 -2.341 -0.6462
                    CHANNELS 6 Xposition Yposition Zposition Zrotation Xrotation Yrotation
                    JOINT LeftFinger42
                    {
                      OFFSET -0.3575 -1.7167 -0.4742
                      CHANNELS 6 Xposition Yposition Zposition Zrotation Xrotation Yrotation
                      End Site
                      {
                        OFFSET -0.4187 -1.5237 -0.3496
                      }
                    }
                  }
                }
                JOINT LeftFinger0
                {
                  OFFSET -1.42 -1.8761 1.4223
                  CHANNELS 6 Xposition Yposition Zposition Zrotation Xrotation Yrotation
                  JOINT LeftFinger01
                  {
                    OFFSET -1.1471 -3.4929 2.6334
                    CHANNELS 6 Xposition Yposition Zposition Zrotation Xrotation Yrotation
                    JOINT LeftFinger02
                    {
                      OFFSET -0.823 -2.3 1.6571
                      CHANNELS 6 Xposition Yposition Zposition Zrotation Xrotation Yrotation
                      End Site
                      {
                        OFFSET -0.5822 -1.6914 1.1582
                      }
                    }
                  }
                }
              }
            }
          }
        }
        JOINT RightCollar
        {
          OFFSET -2.2603 21.606 7.4023
          CHANNELS 6 Xposition Yposition Zposition Zrotation Xrotation Yrotation
          JOINT RightShoulder
          {
            OFFSET -13.5187 -1.1334 -5.0155
            CHANNELS 6 Xposition Yposition Zposition Zrotation Xrotation Yrotation
            JOINT RightElbow
            {
              OFFSET 0.0994 -28.0499 -0.2431
              CHANNELS 6 Xposition Yposition Zposition Zrotation Xrotation Yrotation
              JOINT RightWrist
              {
                OFFSET -0.0679 -23.3996 -0.1402
                CHANNELS 6 Xposition Yposition Zposition Zrotation Xrotation Yrotation
                JOINT RightFinger1
                {
                  OFFSET -0.7932 -9.0691 2.5189
                  CHANNELS 6 Xposition Yposition Zposition Zrotation Xrotation Yrotation
                  JOINT RightFinger11
                  {
                    OFFSET 0.8272 -3.3923 0.5977
                    CHANNELS 6 Xposition Yposition Zposition Zrotation Xrotation Yrotation
                    JOINT RightFinger12
                    {
                      OFFSET 0.565 -2.3158 0.4082
                      CHANNELS 6 Xposition Yposition Zposition Zrotation Xrotation Yrotation
                      End Site
                      {
                        OFFSET 0.4919 -1.6479 0.2673
                      }
                    }
                  }
                }
                JOINT RightFinger2
                {
                  OFFSET -0.916 -9.2044 0.2193
                  CHANNELS 6 Xposition Yposition Zposition Zrotation Xrotation Yrotation
                  JOINT RightFinger21
                  {
                    OFFSET -0.0117 -4.1944 -0.0248
                    CHANNELS 6 Xposition Yposition Zposition Zrotation Xrotation Yrotation
                    JOINT RightFinger22
                    {
                      OFFSET -0.0071 -2.3249 -0.0142
                      CHANNELS 6 Xposition Yposition Zposition Zrotation Xrotation Yrotation
                      End Site
                      {
                        OFFSET 0.1475 -2.0882 0.0028
                      }
                    }
                  }
                }
                JOINT RightFinger3
                {
                  OFFSET -0.6113 -8.7231 -2.0637
                  CHANNELS 6 Xposition Yposition Zposition Zrotation Xrotation Yrotation
                  JOINT RightFinger31
                  {
                    OFFSET 0.1927 -3.8059 -0.2383
                    CHANNELS 6 Xposition Yposition Zposition Zrotation Xrotation Yrotation
                    JOINT RightFinger32
                    {
                      OFFSET 0.1091 -2.1688 -0.1362
                      CHANNELS 6 Xposition Yposition Zposition Zrotation Xrotation Yrotation
                      End Site
                      {
                        OFFSET 0.2358 -1.9176 -0.0906
                      }
                    }
                  }
                }
                JOINT RightFinger4
                {
                  OFFSET 0.6151 -8.0947 -3.564
                  CHANNELS 6 Xposition Yposition Zposition Zrotation Xrotation Yrotation
                  JOINT RightFinger41
                  {
                    OFFSET 0.4882 -2.341 -0.6462
                    CHANNELS 6 Xposition Yposition Zposition Zrotation Xrotation Yrotation
                    JOINT RightFinger42
                    {
                      OFFSET 0.3574 -1.7166 -0.4742
                      CHANNELS 6 Xposition Yposition Zposition Zrotation Xrotation Yrotation
                      End Site
                      {
                        OFFSET 0.4187 -1.5237 -0.3496
                      }
                    }
                  }
                }
                JOINT RightFinger0
                {
                  OFFSET 1.4199 -1.8761 1.4221
                  CHANNELS 6 Xposition Yposition Zposition Zrotation Xrotation Yrotation
                  JOINT RightFinger01
                  {
                    OFFSET 1.1472 -3.4929 2.6336
                    CHANNELS 6 Xposition Yposition Zposition Zrotation Xrotation Yrotation
                    JOINT RightFinger02
                    {
                      OFFSET 0.8229 -2.3 1.6571
                      CHANNELS 6 Xposition Yposition Zposition Zrotation Xrotation Yrotation
                      End Site
                      {
                        OFFSET 0.5822 -1.6914 1.1582
                      }
                    }
                  }
                }
              }
            }
          }
        }
      }
    }
  }
  JOINT RightHip
  {
    OFFSET -9.412 3.9771 -0.7758
    CHANNELS 6 Xposition Yposition Zposition Zrotation Xrotation Yrotation
    JOINT RightKnee
    {
      OFFSET -0.7531 -40.938 0
      CHANNELS 6 Xposition Yposition Zposition Zrotation Xrotation Yrotation
      JOINT RightAnkle
      {
        OFFSET 0 -40.1986 0
        CHANNELS 6 Xposition Yposition Zposition Zrotation Xrotation Yrotation
        JOINT RightToe
        {
          OFFSET 0 -4.4182 9.239
          CHANNELS 6 Xposition Yposition Zposition Zrotation Xrotation Yrotation
          End Site
          {
            OFFSET 0 0 6.1981
          }
        }
      }
    }
  }
  JOINT LeftHip
  {
    OFFSET 9.4119 3.9773 -0.7758
    CHANNELS 6 Xposition Yposition Zposition Zrotation Xrotation Yrotation
    JOINT LeftKnee
    {
      OFFSET 0.7532 -40.9383 0
      CHANNELS 6 Xposition Yposition Zposition Zrotation Xrotation Yrotation
      JOINT LeftAnkle
      {
        OFFSET 0 -40.1986 0
        CHANNELS 6 Xposition Yposition Zposition Zrotation Xrotation Yrotation
        JOINT LeftToe
        {
          OFFSET 0 -4.4182 9.239
          CHANNELS 6 Xposition Yposition Zposition Zrotation Xrotation Yrotation
          End Site
          {
            OFFSET 0 0 6.1981
          }
        }
      }
    }
  }
}
MOTION
Frames:	4
Frame Time:	0.0333333
5.72205e-005 65.662 3.42586 0 0 -0 0 8.7983 -4.7612 0 0 -0 0 8.0291 0.4195 0 0 -0 0 9.9351 -2.2114 0 0 -0 0 22.3885 -0.4656 0 0 -0 -0.0001 12.643 3.4389 0 0 -0 2.2603 21.606 7.4023 0 0 -12.5014 13.5163 -1.1332 -5.0146 88.1196 14.2451 10.6914 -0.0995 -28.05 -0.2431 -0.00160068 -0.00239207 0.000740045 0.0679 -23.3996 -0.1402 -8.4365e-005 7.00714e-005 -9.52055e-007 0.7932 -9.069 2.5189 9.93923e-017 -1.98785e-016 -1.59028e-015 -0.8272 -3.3923 0.5977 9.93923e-017 -5.96354e-016 -1.59028e-015 -0.5649 -2.3158 0.4082 -9.93923e-017 -5.96354e-016 -1.59028e-015 0.9159 -9.2044 0.2193 9.93923e-017 -1.98785e-016 -1.59028e-015 0.0117 -4.1944 -0.0248 -0.0128176 0.00232552 8.52707e-005 0.0071 -2.3249 -0.0142 9.93923e-017 5.96354e-016 -0 0.6113 -8.7231 -2.0637 9.93923e-017 -1.98785e-016 -1.59028e-015 -0.1927 -3.8059 -0.2383 -0.0160551 0.00299681 0.000857156 -0.1091 -2.1688 -0.1362 -2.48481e-016 0 3.18055e-015 -0.6151 -8.0947 -3.5641 9.93923e-017 -1.98785e-016 -1.59028e-015 -0.4882 -2.341 -0.6462 -0.0125865 0.0031206 0.00282719 -0.3575 -1.7167 -0.4742 0 1.98785e-016 -0 -1.42 -1.8761 1.4223 9.93923e-017 -1.98785e-016 -1.59028e-015 -1.1471 -3.4929 2.6334 9.93923e-017 -5.96354e-016 -1.59028e-015 -0.823 -2.3 1.6571 -9.93923e-017 -5.96354e-016 -1.59028e-015 -2.2603 21.606 7.4023 -0.865644 0.16582 7.03859 -13.5187 -1.1334 -5.0155 -88.0329 10.2057 -10.5567 0.0994 -28.0499 -0.2431 0.0015593 -0.00248883 -0.000788628 -0.0679 -23.3996 -0.1402 7.87605e-005 4.10553e-005 1.24965e-005 -0.7932 -9.0691 2.5189 -3.97569e-016 -7.95139e-016 3.18055e-015 0.8272 -3.3923 0.5977 -1.98785e-016 -3.97569e-016 3.18055e-015 0.565 -2.3158 0.4082 -1.98785e-016 0 3.18055e-015 -0.916 -9.2044 0.2193 -3.97569e-016 -7.95139e-016 3.18055e-015 -0.0117 -4.1944 -0.0248 0.0129473 0.00231697 -8.70038e-005 -0.0071 -2.3249 -0.0142 9.93923e-017 -7.95139e-016 1.59028e-015 -0.6113 -8.7231 -2.0637 -3.97569e-016 -7.95139e-016 3.18055e-015 0.1927 -3.8059 -0.2383 0.0163314 0.00303369 -0.000872333 0.1091 -2.1688 -0.1362 3.97569e-016 7.95139e-016 -3.18055e-015 0.6151 -8.0947 -3.564 -3.97569e-016 -7.95139e-016 3.18055e-015 0.4882 -2.341 -0.6462 0.0145763 0.00367772 -0.00326275 0.3574 -1.7166 -0.4742 9.93923e-017 -3.97569e-016 -0 1.4199 -1.8761 1.4221 -3.97569e-016 -7.95139e-016 3.18055e-015 1.1472 -3.4929 2.6336 -1.98785e-016 -3.97569e-016 3.18055e-015 0.8229 -2.3 1.6571 -1.98785e-016 0 3.18055e-015 -9.412 3.9771 -0.7758 3.42482 1.32465 -0.0626183 -0.7531 -40.938 0 0.000117508 0.717283 0.000978199 0 -40.1986 0 -3.4257 -2.04197 -0.0604716 8.88178e-016 -4.4182 9.239 6.47761e-025 0 -0 9.4119 3.9773 -0.7758 -3.42483 1.34017 0.0627307 0.7532 -40.9383 -2.22045e-016 -0.000193936 0.682302 -0.0013703 -8.88179e-016 -40.1986 0 3.42574 -2.02253 0.0595886 -8.88178e-016 -4.4182 9.239 -8.45714e-024 0 -7.40531e-025 
-5.20822 11.9901 56.4395 -59.2287 -38.8878 110.357 0 8.7983 -4.7612 0.270745 -2.96833 -0.0886919 0 8.0291 0.4195 0.537965 -5.93701 -0.163616 7.10543e-015 9.9351 -2.2114 0.537966 -5.93701 -0.16363 0 22.3885 -0.4656 1.01097e-005 7.36566 -3.32686e-006 -0.0001 12.643 3.4389 -9.62922e-006 -41.3307 -1.87947e-005 2.2603 21.606 7.4023 19.0633 -27.4435 -4.72136 13.5163 -1.1332 -5.0146 60.5208 -19.9955 24.9425 -0.0995 -28.05 -0.2431 50.886 -58.8986 64.2814 0.0679 -23.3996 -0.1402 -7.68957 17.9481 8.81451 0.7932 -9.069 2.5189 8.50749e-006 -1.07125e-005 -8.87962e-006 -0.8272 -3.3923 0.5977 -3.18055e-015 3.18055e-015 7.95139e-015 -0.5649 -2.3158 0.4082 1.76556e-031 3.18055e-015 -3.18055e-015 0.9159 -9.2044 0.2193 8.50749e-006 -1.07125e-005 -8.87962e-006 0.0117 -4.1944 -0.0248 -0.0128282 0.00232174 8.53754e-005 0.0071 -2.3249 -0.0142 -9.54166e-015 0 -6.36111e-015 0.6113 -8.7231 -2.0637 8.50749e-006 -1.07125e-005 -8.87962e-006 -0.1927 -3.8059 -0.2383 -0.0160694 0.00301225 0.000859495 -0.1091 -2.1688 -0.1362 4.25389e-006 -7.25474e-006 -4.43958e-006 -0.6151 -8.0947 -3.5641 8.50749e-006 -1.07125e-005 -8.87962e-006 -0.4882 -2.341 -0.6462 -0.0125588 0.00312226 0.0028334 -0.3575 -1.7167 -0.4742 -9.54166e-015 6.36111e-015 -7.95139e-015 -1.42 -1.8761 1.4223 8.50749e-006 -1.07125e-005 -8.87962e-006 -1.1471 -3.4929 2.6334 -3.18055e-015 3.18055e-015 7.95139e-015 -0.823 -2.3 1.6571 1.76556e-031 3.18055e-015 -3.18055e-015 -2.2603 21.606 7.4023 -20.1648 -27.2086 -0.835604 -13.5187 -1.1334 -5.0155 -59.0713 -23.2425 -22.2367 0.0994 -28.0499 -0.2431 -51.3322 -58.2988 -66.1298 -0.0679 -23.3996 -0.1402 7.33937 18.5063 -8.3111 -0.7932 -9.0691 2.5189 -6.36111e-015 0 -3.18055e-015 0.8272 -3.3923 0.5977 -8.346e-008 2.86387e-007 2.71446e-006 0.565 -2.3158 0.4082 7.71685e-006 6.38584e-006 -2.62945e-006 -0.916 -9.2044 0.2193 -6.36111e-015 0 -3.18055e-015 -0.0117 -4.1944 -0.0248 0.0129407 0.00232289 -8.85398e-005 -0.0071 -2.3249 -0.0142 3.18055e-015 0 9.54166e-015 -0.6113 -8.7231 -2.0637 -6.36111e-015 0 -3.18055e-015 0.1927 -3.8059 -0.2383 0.0163382 0.00302922 -0.00087588 0.1091 -2.1688 -0.1362 6.36111e-015 -9.54166e-015 -6.36111e-015 0.6151 -8.0947 -3.564 -6.36111e-015 0 -3.18055e-015 0.4882 -2.341 -0.6462 0.0146447 0.00368984 -0.00328051 0.3574 -1.7166 -0.4742 9.54166e-015 6.36111e-015 1.59028e-014 1.4199 -1.8761 1.4221 -6.36111e-015 0 -3.18055e-015 1.1472 -3.4929 2.6336 -8.346e-008 2.86387e-007 2.71446e-006 0.8229 -2.3 1.6571 7.71685e-006 6.38584e-006 -2.62945e-006 -9.412 3.9771 -0.7758 -1.3774 0.250806 -2.40632 -0.7531 -40.938 0 -19.5738 79.2108 18.0662 7.10543e-015 -40.1986 0 -5.84215 34.1962 -3.78569 7.10543e-015 -4.4182 9.239 -7.60848e-007 -3.86616e-008 -4.78337e-006 9.4119 3.9773 -0.7758 2.79948 -1.26214 2.4152 0.7532 -40.9383 -3.55271e-015 16.6385 78.5299 -15.7395 -3.55271e-015 -40.1986 0 6.69849 33.9326 3.17799 7.10543e-015 -4.4182 9.239 -9.0877e-008 1.32582e-006 -4.70756e-006 
2.53181 -8.9903 83.025 117.661 -75.3762 -63.373 -3.55271e-015 8.7983 -4.7612 0.382631 -4.27536 -0.148604 0 8.0291 0.4195 0.757273 -8.55167 -0.269628 1.77636e-015 9.9351 -2.2114 0.757273 -8.55166 -0.26963 -1.77636e-015 22.3885 -0.4656 4.04476e-006 10.8431 -1.40992e-006 -0.0001 12.643 3.4389 8.4263e-007 -60.6913 1.85961e-006 2.2603 21.606 7.4023 30.8378 -39.4428 0.602716 13.5163 -1.1332 -5.0146 50.6134 -36.1749 32.1028 -0.0995 -28.05 -0.2431 84.9397 -82.8586 101.658 0.0679 -23.3996 -0.1402 -11.0481 26.0107 12.5816 0.7932 -9.069 2.5189 -6.36111e-015 1.59028e-015 -8.34896e-015 -0.8272 -3.3923 0.5977 -3.57034e-006 8.86115e-006 -3.32935e-006 -0.5649 -2.3158 0.4082 1.2615e-006 1.28264e-006 -4.71094e-006 0.9159 -9.2044 0.2193 -6.36111e-015 1.59028e-015 -8.34896e-015 0.0117 -4.1944 -0.0248 -0.0128099 0.00233648 8.54531e-005 0.0071 -2.3249 -0.0142 1.32417e-031 1.59028e-015 -4.77083e-015 0.6113 -8.7231 -2.0637 -6.36111e-015 1.59028e-015 -8.34896e-015 -0.1927 -3.8059 -0.2383 -0.0160652 0.0029997 0.000851955 -0.1091 -2.1688 -0.1362 -2.3822e-006 4.38621e-006 -1.49692e-006 -0.6151 -8.0947 -3.5641 -6.36111e-015 1.59028e-015 -8.34896e-015 -0.4882 -2.341 -0.6462 -0.0125451 0.00311975 0.00281693 -0.3575 -1.7167 -0.4742 -4.207e-007 6.89187e-006 1.57032e-006 -1.42 -1.8761 1.4223 -6.36111e-015 1.59028e-015 -8.34896e-015 -1.1471 -3.4929 2.6334 -3.57034e-006 8.86115e-006 -3.32935e-006 -0.823 -2.3 1.6571 1.2615e-006 1.28264e-006 -4.71094e-006 -2.2603 21.606 7.4023 -31.9896 -39.1886 -6.1718 -13.5187 -1.1334 -5.0155 -47.3906 -38.8085 -27.8104 0.0994 -28.0499 -0.2431 -85.8599 -82.191 -103.607 -0.0679 -23.3996 -0.1402 10.4688 26.8135 -11.8449 -0.7932 -9.0691 2.5189 3.66698e-006 -2.28801e-006 -3.01072e-006 0.8272 -3.3923 0.5977 -6.36111e-015 3.18055e-015 1.59028e-015 0.565 -2.3158 0.4082 -4.08769e-006 2.04256e-006 -3.08419e-006 -0.916 -9.2044 0.2193 3.66698e-006 -2.28801e-006 -3.01072e-006 -0.0117 -4.1944 -0.0248 0.0129446 0.00232436 -8.38098e-005 -0.0071 -2.3249 -0.0142 -9.35819e-007 -1.07008e-005 3.07799e-006 -0.6113 -8.7231 -2.0637 3.66698e-006 -2.28801e-006 -3.01072e-006 0.1927 -3.8059 -0.2383 0.0163171 0.00304028 -0.000871281 0.1091 -2.1688 -0.1362 1.84238e-006 -1.21623e-005 -4.48844e-006 0.6151 -8.0947 -3.564 3.66698e-006 -2.28801e-006 -3.01072e-006 0.4882 -2.341 -0.6462 0.0145857 0.00368855 -0.00326826 0.3574 -1.7166 -0.4742 2.76033e-006 -1.18787e-006 -1.60018e-006 1.4199 -1.8761 1.4221 3.66698e-006 -2.28801e-006 -3.01072e-006 1.1472 -3.4929 2.6336 -6.36111e-015 3.18055e-015 1.59028e-015 0.8229 -2.3 1.6571 -4.08769e-006 2.04256e-006 -3.08419e-006 -9.412 3.9771 -0.7758 -3.21609 -0.355249 -4.41118 -0.7531 -40.938 0 -167.809 65.483 163.667 3.55271e-015 -40.1986 -1.42109e-014 -2.86892 52.0262 -8.8703 0 -4.4182 9.239 1.96202e-006 7.46249e-007 2.37019e-006 9.4119 3.9773 -0.7758 5.28857 -2.6559 4.29231 0.7532 -40.9383 0 167.195 66.5357 -164.008 0 -40.1986 0 4.69406 51.7174 7.59334 0 -4.4182 9.239 -4.04803e-006 -2.09374e-005 -7.41607e-007 
0.434614 -4.3532 78.0925 -90.3963 -89.7304 89.3514 0 8.7983 -4.7612 0.358741 -3.92172 -0.133888 0 8.0291 0.4195 0.710779 -7.84422 -0.243955 0 9.9351 -2.2114 0.71078 -7.84424 -0.243955 4.44089e-016 22.3885 -0.4656 1.44792e-007 10.4323 -4.81568e-007 -0.0001 12.643 3.4389 -3.01459e-008 -58.083 -2.6351e-007 2.2603 21.606 7.4023 28.1713 -36.968 -0.514858 13.5163 -1.1332 -5.0146 52.6379 -32.5524 30.4019 -0.0995 -28.05 -0.2431 74.1307 -77.7796 90.2536 0.0679 -23.3996 -0.1402 -10.3105 24.22 11.7578 0.7932 -9.069 2.5189 -6.16814e-006 -3.63377e-006 -1.86671e-007 -0.8272 -3.3923 0.5977 1.10348e-031 -1.98785e-015 3.18055e-015 -0.5649 -2.3158 0.4082 6.36111e-015 -3.57812e-015 3.37934e-015 0.9159 -9.2044 0.2193 -6.16814e-006 -3.63377e-006 -1.86671e-007 0.0117 -4.1944 -0.0248 -0.0128489 0.00233183 8.69824e-005 0.0071 -2.3249 -0.0142 2.3145e-006 2.45483e-006 3.09708e-006 0.6113 -8.7231 -2.0637 -6.16814e-006 -3.63377e-006 -1.86671e-007 -0.1927 -3.8059 -0.2383 -0.016049 0.00300477 0.000864694 -0.1091 -2.1688 -0.1362 3.42411e-007 -1.05253e-005 -1.53723e-006 -0.6151 -8.0947 -3.5641 -6.16814e-006 -3.63377e-006 -1.86671e-007 -0.4882 -2.341 -0.6462 -0.0125821 0.00312363 0.00282093 -0.3575 -1.7167 -0.4742 4.6289e-006 4.98615e-006 6.19406e-006 -1.42 -1.8761 1.4223 -6.16814e-006 -3.63377e-006 -1.86671e-007 -1.1471 -3.4929 2.6334 1.10348e-031 -1.98785e-015 3.18055e-015 -0.823 -2.3 1.6571 6.36111e-015 -3.57812e-015 3.37934e-015 -2.2603 21.606 7.4023 -29.3165 -36.7148 -5.05644 -13.5187 -1.1334 -5.0155 -49.8939 -35.3277 -26.5204 0.0994 -28.0499 -0.2431 -75.2285 -77.1288 -92.4929 -0.0679 -23.3996 -0.1402 9.78664 24.9689 -11.0745 -0.7932 -9.0691 2.5189 -8.006e-006 -8.09023e-006 9.93142e-006 0.8272 -3.3923 0.5977 6.11839e-006 -1.83117e-006 6.77588e-006 0.565 -2.3158 0.4082 -4.12033e-006 1.50568e-006 -8.1164e-006 -0.916 -9.2044 0.2193 -8.006e-006 -8.09023e-006 9.93142e-006 -0.0117 -4.1944 -0.0248 0.0129897 0.00231991 -8.59549e-005 -0.0071 -2.3249 -0.0142 1.10348e-032 3.18055e-015 -1.98785e-016 -0.6113 -8.7231 -2.0637 -8.006e-006 -8.09023e-006 9.93142e-006 0.1927 -3.8059 -0.2383 0.016328 0.00304216 -0.000863003 0.1091 -2.1688 -0.1362 -3.2382e-006 2.27293e-006 -4.9159e-006 0.6151 -8.0947 -3.564 -8.006e-006 -8.09023e-006 9.93142e-006 0.4882 -2.341 -0.6462 0.0145706 0.00368398 -0.00325669 0.3574 -1.7166 -0.4742 -3.25182e-006 -7.37386e-006 -3.46675e-007 1.4199 -1.8761 1.4221 -8.006e-006 -8.09023e-006 9.93142e-006 1.1472 -3.4929 2.6336 6.11839e-006 -1.83117e-006 6.77588e-006 0.8229 -2.3 1.6571 -4.12033e-006 1.50568e-006 -8.1164e-006 -9.412 3.9771 -0.7758 -2.82641 -0.217021 -3.83571 -0.7531 -40.938 0 -163.27 72.7919 159.875 -1.77636e-015 -40.1986 0 -4.03222 47.955 -7.27524 1.77636e-015 -4.4182 9.239 -1.52312e-008 -5.45516e-008 9.25738e-007 9.4119 3.9773 -0.7758 4.75312 -2.339 3.76365 0.7532 -40.9383 -1.33227e-015 162.495 73.7988 -159.967 1.77636e-015 -40.1986 0 5.56998 47.6728 6.21623 0 -4.4182 9.239 -8.26394e-007 6.25102e-008 -1.44604e-006 
